{
  "accessors": [
    {
      "bufferView": 2,
      "componentType": 5126,
      "count": 1238,
      "max": [
        3.3702070713043213,
        4.787764549255371,
        2.7657828330993652
      ],
      "min": [
        -1.9240665435791016,
        -0.31551671028137207,
        -2.212897300720215
      ],
      "type": "VEC3"
    },
    {
      "bufferView": 2,
      "byteOffset": 14856,
      "componentType": 5126,
      "count": 1238,
      "max": [
        0.9982382655143738,
        0.9988259673118591,
        0.9988102316856384
      ],
      "min": [
        -0.9997817873954773,
        -0.9999359250068665,
        -0.9997457265853882
      ],
      "type": "VEC3"
    },
    {
      "bufferView": 3,
      "componentType": 5126,
      "count": 1238,
      "max": [
        0.47058823704719543,
        0.7137255072593689,
        0.45490196347236633,
        1.0
      ],
      "min": [
        0.10588235408067703,
        0.19607843458652496,
        0.12941177189350128,
        1.0
      ],
      "type": "VEC4"
    },
    {
      "bufferView": 1,
      "componentType": 5126,
      "count": 1238,
      "max": [
        0.7807021141052246,
        0.9980468153953552
      ],
      "min": [
        0.0019531241850927472,
        0.0019531137077137828
      ],
      "type": "VEC2"
    },
    {
      "bufferView": 0,
      "componentType": 5125,
      "count": 3339,
      "type": "SCALAR"
    }
  ],
  "asset": {
    "extras": {
      "author": "Xillute | Dev (https://sketchfab.com/janchristian)",
      "license": "CC-BY-4.0 (http://creativecommons.org/licenses/by/4.0/)",
      "source": "https://sketchfab.com/3d-models/flow-tree-b86cb2d3819546bda2d82c4936d2b927",
      "title": "Flow Tree"
    },
    "generator": "Sketchfab-12.63.0",
    "version": "2.0"
  },
  "bufferViews": [
    {
      "buffer": 0,
      "byteLength": 13356,
      "name": "floatBufferViews",
      "target": 34963
    },
    {
      "buffer": 0,
      "byteLength": 9904,
      "byteOffset": 13356,
      "byteStride": 8,
      "name": "floatBufferViews",
      "target": 34962
    },
    {
      "buffer": 0,
      "byteLength": 29712,
      "byteOffset": 23260,
      "byteStride": 12,
      "name": "floatBufferViews",
      "target": 34962
    },
    {
      "buffer": 0,
      "byteLength": 19808,
      "byteOffset": 52972,
      "byteStride": 16,
      "name": "floatBufferViews",
      "target": 34962
    }
  ],
  "buffers": [
    {
      "byteLength": 72780,
      "uri": "scene.bin"
    }
  ],
  "materials": [
    {
      "doubleSided": true,
      "name": "material0",
      "pbrMetallicRoughness": {
        "baseColorFactor": [
          0.5,
          0.5,
          0.5,
          1.0
        ],
        "metallicFactor": 0.532202743902439,
        "roughnessFactor": 0.709032012195122
      }
    }
  ],
  "meshes": [
    {
      "name": "Merged_PM3D_Sphere3D3_material0_0",
      "primitives": [
        {
          "attributes": {
            "COLOR_0": 2,
            "NORMAL": 1,
            "POSITION": 0,
            "TEXCOORD_0": 3
          },
          "indices": 4,
          "material": 0,
          "mode": 4
        }
      ]
    }
  ],
  "nodes": [
    {
      "children": [
        1
      ],
      "matrix": [
        1.0,
        0.0,
        0.0,
        0.0,
        0.0,
        2.220446049250313e-16,
        -1.0,
        0.0,
        0.0,
        1.0,
        2.220446049250313e-16,
        0.0,
        0.0,
        0.0,
        0.0,
        1.0
      ],
      "name": "Sketchfab_model"
    },
    {
      "children": [
        2
      ],
      "matrix": [
        1.0,
        0.0,
        0.0,
        0.0,
        0.0,
        0.0,
        1.0,
        0.0,
        0.0,
        -1.0,
        0.0,
        0.0,
        0.0,
        0.0,
        0.0,
        1.0
      ],
      "name": "136efd4ec0c74f799ce2fcfcdbcf3273.fbx"
    },
    {
      "children": [
        3
      ],
      "name": "RootNode"
    },
    {
      "children": [
        4
      ],
      "name": "Merged_PM3D_Sphere3D3"
    },
    {
      "mesh": 0,
      "name": "Merged_PM3D_Sphere3D3_material0_0"
    }
  ],
  "scene": 0,
  "scenes": [
    {
      "name": "Sketchfab_Scene",
      "nodes": [
        0
      ]
    }
  ]
}
